<?xml version="1.0" encoding="UTF-8" standalone="no"?>
<!DOCTYPE svg PUBLIC "-//W3C//DTD SVG 1.1//EN"
 "http://www.w3.org/Graphics/SVG/1.1/DTD/svg11.dtd">
<!-- Generated by graphviz version 2.40.1 (20161225.0304)
 -->
<!-- Title: G Pages: 1 -->
<svg width="140pt" height="130pt"
 viewBox="0.00 0.00 139.83 130.00" xmlns="http://www.w3.org/2000/svg" xmlns:xlink="http://www.w3.org/1999/xlink">
<g id="graph0" class="graph" transform="scale(1 1) rotate(0) translate(4 126)">
<title>G</title>
<polygon fill="#ffffff" stroke="transparent" points="-4,4 -4,-126 135.833,-126 135.833,4 -4,4"/>
<!-- A0 -->
<g id="node1" class="node">
<title>A0</title>
<polygon fill="none" stroke="#000000" points="107.42,-122 20.58,-122 20.58,-86 107.42,-86 107.42,-122"/>
<text text-anchor="middle" x="64" y="-107" font-family="Helvetica,sans-Serif" font-size="10.00" fill="#000000">&lt;&lt;abstract&gt;&gt;</text>
<text text-anchor="middle" x="64" y="-95" font-family="Helvetica,sans-Serif" font-size="10.00" fill="#000000">Vehicle</text>
</g>
<!-- A1 -->
<g id="node2" class="node">
<title>A1</title>
<polygon fill="none" stroke="#000000" points="54,-36 0,-36 0,0 54,0 54,-36"/>
<text text-anchor="middle" x="27" y="-15" font-family="Helvetica,sans-Serif" font-size="10.00" fill="#000000">Car</text>
</g>
<!-- A0&#45;&gt;A1 -->
<g id="edge1" class="edge">
<title>A0&#45;&gt;A1</title>
<path fill="none" stroke="#000000" stroke-dasharray="5,2" d="M52.0612,-76.2503C46.417,-63.1313 39.8367,-47.8366 34.8354,-36.2121"/>
<polygon fill="none" stroke="#000000" points="48.986,-77.9589 56.1533,-85.7616 55.4162,-75.1924 48.986,-77.9589"/>
</g>
<!-- A2 -->
<g id="node3" class="node">
<title>A2</title>
<polygon fill="none" stroke="#000000" points="131.6669,-36 72.3331,-36 72.3331,0 131.6669,0 131.6669,-36"/>
<text text-anchor="middle" x="102" y="-15" font-family="Helvetica,sans-Serif" font-size="10.00" fill="#000000">Bicycle</text>
</g>
<!-- A0&#45;&gt;A2 -->
<g id="edge2" class="edge">
<title>A0&#45;&gt;A2</title>
<path fill="none" stroke="#000000" stroke-dasharray="5,2" d="M76.2615,-76.2503C82.0583,-63.1313 88.8164,-47.8366 93.9528,-36.2121"/>
<polygon fill="none" stroke="#000000" points="72.8991,-75.2001 72.0588,-85.7616 79.3019,-78.0293 72.8991,-75.2001"/>
</g>
</g>
</svg>
