<?xml version="1.0" encoding="UTF-8" standalone="no"?>
<!DOCTYPE svg PUBLIC "-//W3C//DTD SVG 1.1//EN"
 "http://www.w3.org/Graphics/SVG/1.1/DTD/svg11.dtd">
<!-- Generated by graphviz version 2.40.1 (20161225.0304)
 -->
<!-- Title: G Pages: 1 -->
<svg width="188pt" height="98pt"
 viewBox="0.00 0.00 188.46 98.00" xmlns="http://www.w3.org/2000/svg" xmlns:xlink="http://www.w3.org/1999/xlink">
<g id="graph0" class="graph" transform="scale(1 1) rotate(0) translate(4 94)">
<title>G</title>
<polygon fill="#ffffff" stroke="transparent" points="-4,4 -4,-94 184.459,-94 184.459,4 -4,4"/>
<!-- A0 -->
<g id="node1" class="node">
<title>A0</title>
<polygon fill="none" stroke="#000000" points="54.5,-36 .166,-36 .166,0 54.5,0 54.5,-36"/>
<text text-anchor="middle" x="27.333" y="-15" font-family="Helvetica,sans-Serif" font-size="10.00" fill="#000000">Ticket</text>
</g>
<!-- A1 -->
<g id="node2" class="node">
<title>A1</title>
<polygon fill="none" stroke="#000000" points="180.3558,-36 104.7692,-36 104.7692,0 180.3558,0 180.3558,-36"/>
<text text-anchor="middle" x="142.5625" y="-15" font-family="Helvetica,sans-Serif" font-size="10.00" fill="#000000">Passenger</text>
</g>
<!-- A0&#45;&gt;A1 -->
<g id="edge1" class="edge">
<title>A0&#45;&gt;A1</title>
<path fill="none" stroke="#000000" d="M54.6408,-18C69.5486,-18 88.2408,-18 104.5527,-18"/>
</g>
<!-- A2 -->
<g id="node3" class="node">
<title>A2</title>
<polygon fill="none" stroke="#000000" points="54.333,-90 .333,-90 .333,-54 54.333,-54 54.333,-90"/>
<text text-anchor="middle" x="27.333" y="-69" font-family="Helvetica,sans-Serif" font-size="10.00" fill="#000000">B</text>
</g>
<!-- A3 -->
<g id="node4" class="node">
<title>A3</title>
<polygon fill="none" stroke="#000000" points="169.5625,-90 115.5625,-90 115.5625,-54 169.5625,-54 169.5625,-90"/>
<text text-anchor="middle" x="142.5625" y="-69" font-family="Helvetica,sans-Serif" font-size="10.00" fill="#000000">A</text>
</g>
<!-- A2&#45;&gt;A3 -->
<g id="edge2" class="edge">
<title>A2&#45;&gt;A3</title>
<path fill="none" stroke="#000000" d="M64.7443,-72C81.2185,-72 100.2159,-72 115.3163,-72"/>
<polygon fill="#000000" stroke="#000000" points="54.3492,-72 64.3492,-67.5001 59.3492,-72 64.3492,-72.0001 64.3492,-72.0001 64.3492,-72.0001 59.3492,-72 64.3492,-76.5001 54.3492,-72 54.3492,-72"/>
</g>
</g>
</svg>
