<?xml version="1.0" encoding="UTF-8" standalone="no"?>
<!DOCTYPE svg PUBLIC "-//W3C//DTD SVG 1.1//EN"
 "http://www.w3.org/Graphics/SVG/1.1/DTD/svg11.dtd">
<!-- Generated by graphviz version 2.40.1 (20161225.0304)
 -->
<!-- Title: G Pages: 1 -->
<svg width="234pt" height="44pt"
 viewBox="0.00 0.00 234.02 44.00" xmlns="http://www.w3.org/2000/svg" xmlns:xlink="http://www.w3.org/1999/xlink">
<g id="graph0" class="graph" transform="scale(1 1) rotate(0) translate(4 40)">
<title>G</title>
<polygon fill="#ffffff" stroke="transparent" points="-4,4 -4,-40 230.02,-40 230.02,4 -4,4"/>
<!-- A0 -->
<g id="node1" class="node">
<title>A0</title>
<polygon fill="none" stroke="#000000" points="71.5003,-36 -.1673,-36 -.1673,0 71.5003,0 71.5003,-36"/>
<text text-anchor="middle" x="35.6665" y="-15" font-family="Helvetica,sans-Serif" font-size="10.00" fill="#000000">Customer</text>
</g>
<!-- A1 -->
<g id="node2" class="node">
<title>A1</title>
<polygon fill="none" stroke="#000000" points="225.864,-36 121.489,-36 121.489,0 225.864,0 225.864,-36"/>
<text text-anchor="middle" x="173.6765" y="-15" font-family="Helvetica,sans-Serif" font-size="10.00" fill="#000000">PaymentStrategy</text>
</g>
<!-- A0&#45;&gt;A1 -->
<g id="edge1" class="edge">
<title>A0&#45;&gt;A1</title>
<path fill="none" stroke="#000000" stroke-dasharray="5,2" d="M71.5667,-18C83.659,-18 97.5288,-18 111.0674,-18"/>
<polygon fill="#000000" stroke="#000000" points="121.321,-18 111.321,-22.5001 116.321,-18 111.321,-18.0001 111.321,-18.0001 111.321,-18.0001 116.321,-18 111.3209,-13.5001 121.321,-18 121.321,-18"/>
<text text-anchor="middle" x="89.6929" y="-6.5476" font-family="Helvetica,sans-Serif" font-size="10.00" fill="#000000">uses</text>
</g>
</g>
</svg>
