<svg width="500" height="200" xmlns="http://www.w3.org/2000/svg" xmlns:xlink="http://www.w3.org/1999/xlink" overflow="hidden">
	<defs>
		<clipPath id="clip0">
			<rect x="0" y="0" width="500" height="200" />
		</clipPath>
	</defs>
	<g clip-path="url(#clip0)">
		<rect x="0" y="0" width="500" height="200" fill="#FFFFFF" />
		<rect x="0" y="0" width="500" height="200" fill="#44546A" />
		<path d="M124.267 5.7999 152.933 5.7999 152.933 33.7999 124.267 33.7999Z" fill="#008000" fill-rule="evenodd" />
		<path d="M310.6 5.7999 339.267 5.7999 339.267 33.7999 310.6 33.7999Z" fill="#008000" fill-rule="evenodd" />
		<path d="M124.267 63.7999 152.933 63.7999 152.933 91.7999 124.267 91.7999Z" fill="#008000" fill-rule="evenodd" />
		<path d="M310.6 63.7999 339.267 63.7999 339.267 91.7999 310.6 91.7999Z" fill="#008000" fill-rule="evenodd" />
		<path d="M124.267 120.8 152.933 120.8 152.933 148.8 124.267 148.8Z" fill="#008000" fill-rule="evenodd" />
		<path d="M339.267 120.8 367.933 120.8 367.933 148.8 339.267 148.8Z" fill="#008000" fill-rule="evenodd" />
		<text fill="#E7E6E6" font-family="Courier New,monospace" font-weight="400" font-size="24" transform="translate(9.6 26)">
			$
			<tspan font-size="24" x="28.6667" y="0">
				echo "
			</tspan>
			^[
			<tspan font-size="24" x="143.333" y="0">
				[31m hello
			</tspan>
			^[[0m"
			<tspan fill="#C00000" font-size="24" x="14.3333" y="29">
				hello
			</tspan>
			<tspan font-size="24" x="0" y="58">
				$ echo "
			</tspan>
			<tspan font-size="24" x="114.667" y="58">
				^[
			</tspan>
			<tspan font-size="24" x="143.333" y="58">
				[32m hello
			</tspan>
			^[[0m"
			<tspan fill="#339933" font-size="24" x="14.3333" y="87">
				hello
			</tspan>
			<tspan font-size="24" x="0" y="115">
				$ echo "
			</tspan>
			<tspan font-size="24" x="114.667" y="115">
				^[
			</tspan>
			<tspan font-size="24" x="143.333" y="115">
				[1;32m hello
			</tspan>
			^[
			<tspan font-size="24" x="358.333" y="115">
				[0m
			</tspan>
			"
			<tspan fill="#00FF00" font-size="24" x="14.3333" y="144">
				hello
			</tspan>
		</text>
	</g>
</svg>
